# xmcd
#
# Track frame offsets: 
#        150
#        13548
#        27096
#        41694
#        56742
#        69165
#        86538
#        100011
#        113559
#        116832
#        134130
#        146928
#        157926
#        169599
#
# Disc length: 2425 seconds
#
# Revision: 0
# Processed by: cddbd v1.5.2PL0 Copyright (c) Steve Scherf et al.
# Submitted via: ExactAudioCopy v1.1
#
DISCID=b709770e
DTITLE=Heikki Punkkinen - Mies, Haitari ja Hanuri
DYEAR=2010
DGENRE=Blues
TTITLE0=Valot
TTITLE1=Jamit
TTITLE2=Yksi Ainoa Ikkuna
TTITLE3=Yölinjalla
TTITLE4=Nuotiotunnelma
TTITLE5=Viivy Vielä Hetki
TTITLE6=Il Mondo
TTITLE7=Viimeinen Ilta
TTITLE8=Juonto
TTITLE9=Unkarilainen Sikermä
TTITLE10=Sysmän Linda
TTITLE11=Salpausselkä-Foxi
TTITLE12=Päijänne-Valssi
TTITLE13=Romanssi
EXTD=
EXTT0=
EXTT1=
EXTT2=
EXTT3=
EXTT4=
EXTT5=
EXTT6=
EXTT7=
EXTT8=
EXTT9=
EXTT10=
EXTT11=
EXTT12=
EXTT13=
PLAYORDER=
